# xmcd
#
# Track frame offsets: 
#        150
#        21793
#        40949
#        63231
#        106638
#        125351
#        147134
#        177079
#        195492
#        215328
#        241879
#        260928
#        278917
#        301386
#
# Disc length: 4374 seconds
#
# Revision: 2
# Processed by: cddbd v1.5.2PL0 Copyright (c) Steve Scherf et al.
# Submitted via: ExactAudioCopy v0.99pb4
#
DISCID=c111140e
DTITLE=gary moore - blues
DYEAR=2000
DGENRE=
TTITLE0=house full of blues
TTITLE1=empty rooms
TTITLE2=midnight blues
TTITLE3=surrender
TTITLE4=stil got the blues
TTITLE5=bring my baby back
TTITLE6=story of the blues
TTITLE7=falling in love with you
TTITLE8=cold day in hell
TTITLE9=the longer
TTITLE10=wild fronter
TTITLE11=one day
TTITLE12=crying in the shadows
TTITLE13=still in love with you
EXTD=
EXTT0=
EXTT1=
EXTT2=
EXTT3=
EXTT4=
EXTT5=
EXTT6=
EXTT7=
EXTT8=
EXTT9=
EXTT10=
EXTT11=
EXTT12=
EXTT13=
PLAYORDER=
